<mxfile host="app.diagrams.net" modified="2023-11-01T11:11:46.794Z" agent="Mozilla/5.0 (Windows NT 10.0; Win64; x64) AppleWebKit/537.36 (KHTML, like Gecko) Chrome/119.0.0.0 Safari/537.36" etag="NKvKftvt9Ka6-8RzmiP4" version="22.0.8" type="device">
  <diagram name="Page-1" id="2YBvvXClWsGukQMizWep">
    <mxGraphModel dx="1050" dy="534" grid="1" gridSize="10" guides="1" tooltips="1" connect="1" arrows="1" fold="1" page="1" pageScale="1" pageWidth="850" pageHeight="1100" math="0" shadow="0">
      <root>
        <mxCell id="0" />
        <mxCell id="1" parent="0" />
        <mxCell id="UNg2huOa62MbCrixfZIk-45" value="" style="edgeStyle=entityRelationEdgeStyle;rounded=0;orthogonalLoop=1;jettySize=auto;html=1;startArrow=none;endArrow=none;segment=10;curved=1;sourcePerimeterSpacing=0;targetPerimeterSpacing=0;" parent="1" target="UNg2huOa62MbCrixfZIk-44" edge="1">
          <mxGeometry relative="1" as="geometry">
            <mxPoint x="204" y="320" as="sourcePoint" />
          </mxGeometry>
        </mxCell>
        <mxCell id="UNg2huOa62MbCrixfZIk-54" style="edgeStyle=orthogonalEdgeStyle;rounded=0;orthogonalLoop=1;jettySize=auto;html=1;exitX=1;exitY=0.5;exitDx=0;exitDy=0;entryX=0;entryY=0.5;entryDx=0;entryDy=0;" parent="1" source="UNg2huOa62MbCrixfZIk-44" target="UNg2huOa62MbCrixfZIk-53" edge="1">
          <mxGeometry relative="1" as="geometry" />
        </mxCell>
        <mxCell id="UNg2huOa62MbCrixfZIk-58" value="" style="edgeStyle=orthogonalEdgeStyle;rounded=0;orthogonalLoop=1;jettySize=auto;html=1;entryX=0;entryY=0.5;entryDx=0;entryDy=0;" parent="1" source="UNg2huOa62MbCrixfZIk-53" target="UNg2huOa62MbCrixfZIk-77" edge="1">
          <mxGeometry relative="1" as="geometry">
            <mxPoint x="560" y="320" as="targetPoint" />
            <Array as="points">
              <mxPoint x="550" y="320" />
              <mxPoint x="550" y="320" />
            </Array>
          </mxGeometry>
        </mxCell>
        <mxCell id="UNg2huOa62MbCrixfZIk-53" value="&lt;font face=&quot;Times New Roman&quot;&gt;KB PostgreSQL:&lt;br&gt;&quot;Items&quot;; &quot;Abstracts&quot;&lt;br&gt;&lt;/font&gt;" style="shape=datastore;whiteSpace=wrap;html=1;" parent="1" vertex="1">
          <mxGeometry x="440" y="275" width="80" height="90" as="geometry" />
        </mxCell>
        <mxCell id="UNg2huOa62MbCrixfZIk-44" value="&lt;font face=&quot;Times New Roman&quot;&gt;Query publication&#39;s&lt;br&gt;Title, Abstract, Keywords&lt;/font&gt;" style="whiteSpace=wrap;html=1;" parent="1" vertex="1">
          <mxGeometry x="280" y="290" width="120" height="60" as="geometry" />
        </mxCell>
        <mxCell id="UNg2huOa62MbCrixfZIk-77" value="&lt;font face=&quot;Times New Roman&quot;&gt;Export meta data based on title results&lt;/font&gt;" style="html=1;whiteSpace=wrap;" parent="1" vertex="1">
          <mxGeometry x="561" y="295" width="120" height="50" as="geometry" />
        </mxCell>
        <mxCell id="UNg2huOa62MbCrixfZIk-96" style="edgeStyle=orthogonalEdgeStyle;rounded=0;orthogonalLoop=1;jettySize=auto;html=1;exitX=1;exitY=0.5;exitDx=0;exitDy=0;endArrow=classic;endFill=1;entryX=0;entryY=0.5;entryDx=0;entryDy=0;" parent="1" source="UNg2huOa62MbCrixfZIk-77" edge="1">
          <mxGeometry relative="1" as="geometry">
            <mxPoint x="729.9324999999999" y="320" as="targetPoint" />
            <Array as="points">
              <mxPoint x="730" y="320" />
              <mxPoint x="730" y="320" />
            </Array>
            <mxPoint x="720" y="240" as="sourcePoint" />
          </mxGeometry>
        </mxCell>
        <mxCell id="UNg2huOa62MbCrixfZIk-105" value="" style="edgeStyle=orthogonalEdgeStyle;rounded=0;orthogonalLoop=1;jettySize=auto;html=1;exitX=0.5;exitY=1;exitDx=0;exitDy=0;" parent="1" target="UNg2huOa62MbCrixfZIk-104" edge="1" source="UNg2huOa62MbCrixfZIk-112">
          <mxGeometry relative="1" as="geometry">
            <mxPoint x="823" y="430" as="sourcePoint" />
          </mxGeometry>
        </mxCell>
        <mxCell id="UNg2huOa62MbCrixfZIk-103" value="&lt;span style=&quot;color: rgb(0, 0, 0); font-family: &amp;quot;Times New Roman&amp;quot;; font-size: 12px; font-style: normal; font-variant-ligatures: normal; font-variant-caps: normal; font-weight: 400; letter-spacing: normal; orphans: 2; text-align: center; text-indent: 0px; text-transform: none; widows: 2; word-spacing: 0px; -webkit-text-stroke-width: 0px; background-color: rgb(251, 251, 251); text-decoration-thickness: initial; text-decoration-style: initial; text-decoration-color: initial; float: none; display: inline !important;&quot;&gt;Keyword&lt;/span&gt;&lt;br style=&quot;border-color: var(--border-color); color: rgb(0, 0, 0); font-family: &amp;quot;Times New Roman&amp;quot;; font-size: 12px; font-style: normal; font-variant-ligatures: normal; font-variant-caps: normal; font-weight: 400; letter-spacing: normal; orphans: 2; text-align: center; text-indent: 0px; text-transform: none; widows: 2; word-spacing: 0px; -webkit-text-stroke-width: 0px; background-color: rgb(251, 251, 251); text-decoration-thickness: initial; text-decoration-style: initial; text-decoration-color: initial;&quot;&gt;&lt;span style=&quot;color: rgb(0, 0, 0); font-family: &amp;quot;Times New Roman&amp;quot;; font-size: 12px; font-style: normal; font-variant-ligatures: normal; font-variant-caps: normal; font-weight: 400; letter-spacing: normal; orphans: 2; text-align: center; text-indent: 0px; text-transform: none; widows: 2; word-spacing: 0px; -webkit-text-stroke-width: 0px; background-color: rgb(251, 251, 251); text-decoration-thickness: initial; text-decoration-style: initial; text-decoration-color: initial; float: none; display: inline !important;&quot;&gt;&quot;computational&lt;br&gt;neuroscience(s)&quot;&lt;/span&gt;" style="strokeWidth=2;html=1;shape=mxgraph.flowchart.decision;whiteSpace=wrap;" parent="1" vertex="1">
          <mxGeometry x="79" y="270" width="170" height="100" as="geometry" />
        </mxCell>
        <mxCell id="UNg2huOa62MbCrixfZIk-110" style="edgeStyle=orthogonalEdgeStyle;rounded=0;orthogonalLoop=1;jettySize=auto;html=1;exitX=0;exitY=0.5;exitDx=0;exitDy=0;entryX=1;entryY=0.5;entryDx=0;entryDy=0;" parent="1" source="UNg2huOa62MbCrixfZIk-104" target="UNg2huOa62MbCrixfZIk-109" edge="1">
          <mxGeometry relative="1" as="geometry" />
        </mxCell>
        <mxCell id="UNg2huOa62MbCrixfZIk-104" value="Retrieve all abstracts based on publication IDs" style="whiteSpace=wrap;html=1;fontFamily=Times New Roman;" parent="1" vertex="1">
          <mxGeometry x="718.25" y="530" width="120" height="60" as="geometry" />
        </mxCell>
        <mxCell id="UNg2huOa62MbCrixfZIk-116" value="" style="edgeStyle=orthogonalEdgeStyle;rounded=0;orthogonalLoop=1;jettySize=auto;html=1;" parent="1" source="UNg2huOa62MbCrixfZIk-109" target="UNg2huOa62MbCrixfZIk-115" edge="1">
          <mxGeometry relative="1" as="geometry" />
        </mxCell>
        <mxCell id="UNg2huOa62MbCrixfZIk-109" value="&lt;font face=&quot;Times New Roman&quot;&gt;KB PostgreSQL:&lt;br&gt;&quot;Abstracts&quot;&lt;br&gt;&lt;/font&gt;" style="shape=datastore;whiteSpace=wrap;html=1;" parent="1" vertex="1">
          <mxGeometry x="440" y="515" width="80" height="90" as="geometry" />
        </mxCell>
        <mxCell id="qCyl_W-c7o3_SKPiJfAr-3" style="edgeStyle=orthogonalEdgeStyle;rounded=0;orthogonalLoop=1;jettySize=auto;html=1;exitX=0;exitY=0.5;exitDx=0;exitDy=0;entryX=1;entryY=0.5;entryDx=0;entryDy=0;" edge="1" parent="1" source="UNg2huOa62MbCrixfZIk-112" target="UNg2huOa62MbCrixfZIk-117">
          <mxGeometry relative="1" as="geometry">
            <mxPoint x="690" y="440" as="targetPoint" />
          </mxGeometry>
        </mxCell>
        <mxCell id="UNg2huOa62MbCrixfZIk-112" value="&lt;font face=&quot;Times New Roman&quot;&gt;&lt;br&gt;&lt;br&gt;Clean dataset and remove duplicates&lt;/font&gt;" style="shape=manualInput;whiteSpace=wrap;html=1;" parent="1" vertex="1">
          <mxGeometry x="717.5" y="402" width="121.5" height="70" as="geometry" />
        </mxCell>
        <mxCell id="UNg2huOa62MbCrixfZIk-129" value="" style="edgeStyle=orthogonalEdgeStyle;rounded=0;orthogonalLoop=1;jettySize=auto;html=1;" parent="1" source="UNg2huOa62MbCrixfZIk-115" target="UNg2huOa62MbCrixfZIk-128" edge="1">
          <mxGeometry relative="1" as="geometry" />
        </mxCell>
        <mxCell id="qCyl_W-c7o3_SKPiJfAr-7" style="edgeStyle=orthogonalEdgeStyle;rounded=0;orthogonalLoop=1;jettySize=auto;html=1;exitX=0;exitY=0.5;exitDx=0;exitDy=0;entryX=1;entryY=0.5;entryDx=0;entryDy=0;elbow=vertical;" edge="1" parent="1" source="UNg2huOa62MbCrixfZIk-115" target="UNg2huOa62MbCrixfZIk-135">
          <mxGeometry relative="1" as="geometry">
            <Array as="points">
              <mxPoint x="250" y="560" />
              <mxPoint x="250" y="690" />
            </Array>
          </mxGeometry>
        </mxCell>
        <mxCell id="UNg2huOa62MbCrixfZIk-115" value="&lt;font face=&quot;Times New Roman&quot;&gt;Merge abstracts with publication dataset&lt;/font&gt;" style="whiteSpace=wrap;html=1;" parent="1" vertex="1">
          <mxGeometry x="280" y="530" width="120" height="60" as="geometry" />
        </mxCell>
        <mxCell id="UNg2huOa62MbCrixfZIk-121" style="edgeStyle=orthogonalEdgeStyle;rounded=0;orthogonalLoop=1;jettySize=auto;html=1;exitX=0;exitY=0.5;exitDx=0;exitDy=0;" parent="1" source="UNg2huOa62MbCrixfZIk-117" edge="1">
          <mxGeometry relative="1" as="geometry">
            <mxPoint x="520" y="437" as="targetPoint" />
          </mxGeometry>
        </mxCell>
        <mxCell id="UNg2huOa62MbCrixfZIk-117" value="&lt;font face=&quot;Times New Roman&quot;&gt;Retrieve full author information&lt;/font&gt;" style="whiteSpace=wrap;html=1;" parent="1" vertex="1">
          <mxGeometry x="561" y="407" width="120" height="60" as="geometry" />
        </mxCell>
        <mxCell id="UNg2huOa62MbCrixfZIk-124" value="" style="edgeStyle=orthogonalEdgeStyle;rounded=0;orthogonalLoop=1;jettySize=auto;html=1;" parent="1" source="UNg2huOa62MbCrixfZIk-119" target="UNg2huOa62MbCrixfZIk-123" edge="1">
          <mxGeometry relative="1" as="geometry" />
        </mxCell>
        <mxCell id="UNg2huOa62MbCrixfZIk-119" value="&lt;font face=&quot;Times New Roman&quot;&gt;KB PostgreSQL:&lt;br&gt;&quot;Authors&quot;&lt;br&gt;&lt;/font&gt;" style="shape=datastore;whiteSpace=wrap;html=1;" parent="1" vertex="1">
          <mxGeometry x="440" y="392" width="80" height="90" as="geometry" />
        </mxCell>
        <mxCell id="UNg2huOa62MbCrixfZIk-133" style="edgeStyle=orthogonalEdgeStyle;rounded=0;orthogonalLoop=1;jettySize=auto;html=1;exitX=0;exitY=0.5;exitDx=0;exitDy=0;entryX=1;entryY=0.5;entryDx=0;entryDy=0;" parent="1" source="UNg2huOa62MbCrixfZIk-123" edge="1" target="UNg2huOa62MbCrixfZIk-126">
          <mxGeometry relative="1" as="geometry">
            <mxPoint x="225" y="432" as="targetPoint" />
          </mxGeometry>
        </mxCell>
        <mxCell id="UNg2huOa62MbCrixfZIk-123" value="Merge author information" style="whiteSpace=wrap;html=1;fontFamily=Times New Roman;" parent="1" vertex="1">
          <mxGeometry x="280" y="407" width="120" height="60" as="geometry" />
        </mxCell>
        <mxCell id="UNg2huOa62MbCrixfZIk-138" value="" style="edgeStyle=orthogonalEdgeStyle;rounded=0;orthogonalLoop=1;jettySize=auto;html=1;" parent="1" source="UNg2huOa62MbCrixfZIk-126" target="UNg2huOa62MbCrixfZIk-137" edge="1">
          <mxGeometry relative="1" as="geometry" />
        </mxCell>
        <mxCell id="UNg2huOa62MbCrixfZIk-126" value="&lt;font face=&quot;Times New Roman&quot;&gt;&lt;br&gt;Clean author names&lt;/font&gt;" style="shape=manualInput;whiteSpace=wrap;html=1;" parent="1" vertex="1">
          <mxGeometry x="103.25" y="403" width="121.5" height="67" as="geometry" />
        </mxCell>
        <mxCell id="qCyl_W-c7o3_SKPiJfAr-5" style="edgeStyle=orthogonalEdgeStyle;rounded=0;orthogonalLoop=1;jettySize=auto;html=1;exitX=1;exitY=0.5;exitDx=0;exitDy=0;entryX=0;entryY=0.5;entryDx=0;entryDy=0;" edge="1" parent="1" source="UNg2huOa62MbCrixfZIk-128" target="UNg2huOa62MbCrixfZIk-130">
          <mxGeometry relative="1" as="geometry" />
        </mxCell>
        <mxCell id="UNg2huOa62MbCrixfZIk-128" value="Retrieve references&#39; meta data based on publication IDs" style="whiteSpace=wrap;html=1;fontFamily=Times New Roman;" parent="1" vertex="1">
          <mxGeometry x="280" y="660" width="120" height="60" as="geometry" />
        </mxCell>
        <mxCell id="qCyl_W-c7o3_SKPiJfAr-6" value="" style="edgeStyle=orthogonalEdgeStyle;rounded=0;orthogonalLoop=1;jettySize=auto;html=1;" edge="1" parent="1" source="UNg2huOa62MbCrixfZIk-130">
          <mxGeometry relative="1" as="geometry">
            <mxPoint x="560" y="690" as="targetPoint" />
          </mxGeometry>
        </mxCell>
        <mxCell id="UNg2huOa62MbCrixfZIk-130" value="&lt;font face=&quot;Times New Roman&quot;&gt;KB PostgreSQL:&lt;br&gt;&quot;References&quot;&lt;br&gt;&lt;/font&gt;" style="shape=datastore;whiteSpace=wrap;html=1;" parent="1" vertex="1">
          <mxGeometry x="440" y="645" width="80" height="90" as="geometry" />
        </mxCell>
        <mxCell id="UNg2huOa62MbCrixfZIk-135" value="Dataset &lt;br&gt;Publications" style="shape=parallelogram;perimeter=parallelogramPerimeter;whiteSpace=wrap;html=1;fixedSize=1;fontFamily=Times New Roman;strokeWidth=3;" parent="1" vertex="1">
          <mxGeometry x="103.25" y="660" width="120" height="60" as="geometry" />
        </mxCell>
        <mxCell id="UNg2huOa62MbCrixfZIk-137" value="&lt;font face=&quot;Times New Roman&quot;&gt;Dataset&lt;br&gt;Authors&lt;br&gt;&lt;/font&gt;" style="shape=parallelogram;perimeter=parallelogramPerimeter;whiteSpace=wrap;html=1;fixedSize=1;strokeWidth=3;" parent="1" vertex="1">
          <mxGeometry x="103.25" y="540" width="120" height="60" as="geometry" />
        </mxCell>
        <mxCell id="qCyl_W-c7o3_SKPiJfAr-10" value="" style="rounded=0;orthogonalLoop=1;jettySize=auto;html=1;" edge="1" parent="1">
          <mxGeometry relative="1" as="geometry">
            <mxPoint x="661" y="689" as="sourcePoint" />
            <mxPoint x="720" y="689" as="targetPoint" />
          </mxGeometry>
        </mxCell>
        <mxCell id="UNg2huOa62MbCrixfZIk-142" value="&lt;font face=&quot;Times New Roman&quot;&gt;&lt;br&gt;Clean references&lt;/font&gt;" style="shape=manualInput;whiteSpace=wrap;html=1;" parent="1" vertex="1">
          <mxGeometry x="561" y="650" width="100" height="70" as="geometry" />
        </mxCell>
        <mxCell id="UNg2huOa62MbCrixfZIk-144" value="&lt;font face=&quot;Times New Roman&quot;&gt;Dataset&lt;br&gt;References&lt;/font&gt;" style="shape=parallelogram;perimeter=parallelogramPerimeter;whiteSpace=wrap;html=1;fixedSize=1;strokeWidth=3;" parent="1" vertex="1">
          <mxGeometry x="715.5" y="660" width="120" height="60" as="geometry" />
        </mxCell>
        <mxCell id="qCyl_W-c7o3_SKPiJfAr-11" value="" style="rounded=0;orthogonalLoop=1;jettySize=auto;html=1;" edge="1" parent="1">
          <mxGeometry relative="1" as="geometry">
            <mxPoint x="780" y="340" as="sourcePoint" />
            <mxPoint x="780" y="410" as="targetPoint" />
          </mxGeometry>
        </mxCell>
        <mxCell id="qCyl_W-c7o3_SKPiJfAr-9" value="&lt;font face=&quot;Times New Roman&quot;&gt;Merged dataset&lt;br&gt;with duplicates&lt;br&gt;&lt;/font&gt;" style="shape=parallelogram;perimeter=parallelogramPerimeter;whiteSpace=wrap;html=1;fixedSize=1;" vertex="1" parent="1">
          <mxGeometry x="725" y="285" width="110" height="60" as="geometry" />
        </mxCell>
      </root>
    </mxGraphModel>
  </diagram>
</mxfile>
